<svg width="60" height="58" viewBox="0 0 60 58" fill="none" xmlns="http://www.w3.org/2000/svg">
  <path d="M0 33.3334L5.2875e-06 0L16.6666 9.2593V24.1666L30 31.6667L43.3332 24.1666V9.2593L60 0V33.3334L30 50L0 33.3334Z" fill="#192657" transform="translate(0, 8)"/>
  
  <path fill-rule="evenodd" clip-rule="evenodd" d="M8.33334 21.1747L0 16.5714L30 0L60 16.5714L51.6666 21.1747V45.5714L30 58L8.33332 45.5714L8.33334 21.1747ZM50.7639 21.6734L43.3332 25.7778V25.6857L30 18.2285L16.6666 25.6857V25.7778L9.2361 21.6734V45.0615L30 56.9723L50.7639 45.0615V21.6734Z" fill="url(#paint0_linear_1805_2899)"/>
  
  <defs>
    <linearGradient id="paint0_linear_1805_2899" x1="8.33332" y1="12.8889" x2="53.3333" y2="12.8889" gradientUnits="userSpaceOnUse">
      <stop stop-color="#64C2DB"/>
      <stop offset="0.307292" stop-color="#7476ED"/>
      <stop offset="0.604167" stop-color="#C994DF"/>
      <stop offset="1" stop-color="#E56F8C"/>
    </linearGradient>
  </defs>
</svg>
